<svg width="96" height="96" viewBox="0 0 96 96" fill="none" xmlns="http://www.w3.org/2000/svg">
<path fill-rule="evenodd" clip-rule="evenodd" d="M92.7475 2.8275C96.5175 6.6075 96.5175 12.7775 92.7475 16.5475L61.5075 47.7875L92.7475 79.0275C96.5175 82.7975 96.5175 88.9675 92.7475 92.7475C88.9675 96.5175 82.7975 96.5175 79.0275 92.7475L47.7875 61.5075L16.5475 92.7475C12.7775 96.5175 6.6075 96.5175 2.8275 92.7475C-0.9425 88.9675 -0.9425 82.7975 2.8275 79.0275L34.0675 47.7875L2.8275 16.5475C-0.9425 12.7775 -0.9425 6.6075 2.8275 2.8275C6.6075 -0.9425 12.7775 -0.9425 16.5475 2.8275L47.7875 34.0675L79.0275 2.8275C82.7975 -0.9425 88.9675 -0.9425 92.7475 2.8275Z" fill="#191D22"/>
</svg>
