<svg width="23" height="23" viewBox="0 0 23 23" fill="none" xmlns="http://www.w3.org/2000/svg">
<path d="M21.25 15C20.9186 15.0005 20.601 15.1324 20.3667 15.3667C20.1324 15.601 20.0005 15.9186 20 16.25V19.25C19.9995 19.4488 19.9203 19.6392 19.7797 19.7797C19.6392 19.9203 19.4488 19.9995 19.25 20H3.25C3.05125 19.9995 2.86079 19.9203 2.72025 19.7797C2.57971 19.6392 2.50053 19.4488 2.5 19.25V16.25C2.5 15.9185 2.3683 15.6005 2.13388 15.3661C1.89946 15.1317 1.58152 15 1.25 15C0.918479 15 0.600537 15.1317 0.366117 15.3661C0.131696 15.6005 0 15.9185 0 16.25V19.25C0.00105851 20.1116 0.343808 20.9377 0.953072 21.5469C1.56234 22.1562 2.38837 22.4989 3.25 22.5H19.25C20.1116 22.4989 20.9377 22.1562 21.5469 21.5469C22.1562 20.9377 22.4989 20.1116 22.5 19.25V16.25C22.4995 15.9186 22.3676 15.601 22.1333 15.3667C21.899 15.1324 21.5814 15.0005 21.25 15Z" fill="#191D22"/>
<path d="M11.2491 0C10.9177 0.000528905 10.6001 0.132395 10.3658 0.366701C10.1315 0.601007 9.99962 0.918642 9.99909 1.25V12.581L6.04909 9.29C5.79434 9.07817 5.46596 8.97606 5.136 9.00605C4.80605 9.03605 4.50147 9.19571 4.28909 9.45C4.07726 9.70475 3.97515 10.0331 4.00514 10.3631C4.03514 10.693 4.1948 10.9976 4.44909 11.21L10.4491 16.21C10.5121 16.2547 10.579 16.2935 10.6491 16.326C10.6948 16.3566 10.7426 16.384 10.7921 16.408C10.9363 16.4687 11.0911 16.5 11.2476 16.5C11.404 16.5 11.5589 16.4687 11.7031 16.408C11.7514 16.3839 11.7981 16.3569 11.8431 16.327C11.9131 16.2945 11.9801 16.2556 12.0431 16.211L18.0431 11.211C18.2403 11.047 18.3823 10.8262 18.4497 10.5787C18.5172 10.3312 18.5069 10.0689 18.4202 9.82751C18.3335 9.58608 18.1746 9.37717 17.9651 9.22913C17.7556 9.08109 17.5056 9.0011 17.2491 9C16.9568 9.00055 16.6738 9.10312 16.4491 9.29L12.4991 12.581V1.25C12.4986 0.918642 12.3667 0.601007 12.1324 0.366701C11.8981 0.132395 11.5804 0.000528905 11.2491 0Z" fill="#191D22"/>
</svg>
