<svg width="84" height="63" viewBox="0 0 84 63" fill="none" xmlns="http://www.w3.org/2000/svg">
<path fill-rule="evenodd" clip-rule="evenodd" d="M24.358 0.113281H55.4925C57.0264 0.11689 58.2678 1.36191 58.2714 2.89193V8.44924C58.2678 9.98296 57.0263 11.2243 55.4925 11.2279H24.358C17.3457 11.2892 11.694 16.9873 11.694 23.9987C11.694 31.0067 17.3457 36.7086 24.358 36.7659H64.2049L59.4483 32.0097L59.4519 32.0133C57.2902 29.8372 57.2902 26.3261 59.4519 24.1537C61.6246 21.9921 65.136 21.9921 67.3087 24.1537L82.7803 39.6202C84.1878 41.0347 84.1878 43.319 82.7803 44.73L67.013 60.4921C64.8404 62.6537 61.3289 62.6537 59.1563 60.4921C56.9945 58.3161 56.9945 54.8049 59.1563 52.6325L63.9129 47.8763H24.3588C15.9138 47.75 8.16186 43.1706 3.97566 35.8344C-0.210536 28.4982 -0.210721 19.4976 3.97566 12.1616C8.16205 4.82558 15.9143 0.246225 24.3588 0.115967L24.358 0.113281Z" fill="#191D22"/>
</svg>
