<svg width="75" height="82" viewBox="0 0 75 82" fill="none" xmlns="http://www.w3.org/2000/svg">
<path d="M74.0858 16.5391L58.4608 0.91406C57.8749 0.32812 57.078 0 56.2499 0H7.7969C3.5 0 0 3.5 0 7.7969V73.4529C0 77.7498 3.5 81.2498 7.7969 81.2498H67.2029C71.4998 81.2498 74.9998 77.7498 74.9998 73.4529V18.7499C74.9998 17.9218 74.6717 17.125 74.0858 16.5391ZM48.4378 6.25006V18.6561H23.4378V6.25006H48.4378ZM20.3128 75.0001V46.8361C20.3128 45.9454 21.0394 45.2189 21.93 45.2189H53.071C53.9616 45.2189 54.6882 45.9454 54.6882 46.8361V75.0001H20.3128ZM68.7508 73.4532C68.7508 74.3047 68.0555 75.0001 67.2039 75.0001H60.9383V46.8361C60.9383 42.5002 57.4071 38.9689 53.0711 38.9689H21.9301C17.5942 38.9689 14.0629 42.5001 14.0629 46.8361V75.0001H7.7973C6.94574 75.0001 6.2504 74.3048 6.2504 73.4532V7.79716C6.2504 6.9456 6.94571 6.25026 7.7973 6.25026H17.1879V18.7503C17.1879 22.1487 19.9535 24.9065 23.3441 24.9065H48.5321C51.9305 24.9065 54.6883 22.1409 54.6883 18.7503V6.25026H54.9539L68.7509 20.0473L68.7508 73.4532Z" fill="#191D22"/>
</svg>
