<svg width="52" height="34" viewBox="0 0 52 34" fill="none" xmlns="http://www.w3.org/2000/svg">
<path d="M3.50967 0H48.0908C50.0219 0 51.6005 1.57706 51.6005 3.50967V30.4903C51.6005 32.4214 50.0219 34 48.0908 34H3.50967C1.57864 34 0 32.4214 0 30.4903V3.50967C0 1.57864 1.57864 0 3.50967 0ZM41.0225 24.7415C41.6988 24.7415 42.3167 24.9896 42.7892 25.4004C43.2633 24.9912 43.8811 24.7415 44.5559 24.7415C46.0476 24.7415 47.258 25.9519 47.258 27.4437C47.258 28.9354 46.0476 30.1458 44.5559 30.1458C43.8811 30.1458 43.2633 29.8978 42.7892 29.4885C42.3167 29.8978 41.6988 30.1458 41.0225 30.1458C39.5308 30.1458 38.3203 28.9354 38.3203 27.4437C38.3203 25.9519 39.5308 24.7415 41.0225 24.7415ZM6.13757 29.4585C4.73434 29.4585 4.73434 27.3252 6.13757 27.3252H31.7055C33.1088 27.3252 33.1088 29.4585 31.7055 29.4585H6.13757ZM10.3252 16.5054L8.64538 20.1841H12.1456L13.8253 16.5054H10.3252ZM6.30982 20.1841L7.98959 16.5054H5.9353C5.73146 16.5054 5.56079 16.6761 5.56079 16.8799V19.808C5.56079 20.0119 5.73146 20.1826 5.9353 20.1826H6.30982V20.1841ZM33.6682 16.5054L31.9884 20.1841H34.0443C34.2481 20.1841 34.4188 20.0119 34.4188 19.8096V16.8815C34.4188 16.6776 34.2481 16.507 34.0443 16.507H33.6682V16.5054ZM29.6528 20.1841L31.3326 16.5054H27.8324L26.1526 20.1841H29.6528ZM23.8171 20.1841L25.4968 16.5054H21.9967L20.3169 20.1841H23.8171ZM17.9813 20.1841L19.6611 16.5054H16.1609L14.4811 20.1841H17.9813ZM5.9353 14.3721H34.0443C35.4254 14.3721 36.5536 15.4988 36.5536 16.8815V19.8096C36.5536 21.1923 35.4269 22.319 34.0443 22.319H5.9353C4.55261 22.319 3.42592 21.1923 3.42592 19.8096V16.8815C3.42592 15.4988 4.55261 14.3721 5.9353 14.3721ZM2.1333 4.97769H49.4656V3.51125C49.4656 2.75748 48.8446 2.13646 48.0908 2.13646H3.50967C2.7559 2.13646 2.13488 2.75906 2.13488 3.51125V4.97769H2.1333ZM49.4656 12.4806H2.1333V30.4919C2.1333 31.2457 2.75432 31.8667 3.50809 31.8667H48.0892C48.843 31.8667 49.464 31.2457 49.464 30.4919V12.4806H49.4656Z" fill="#191D22"/>
</svg>
