<svg width="61" height="35" viewBox="0 0 61 35" fill="none" xmlns="http://www.w3.org/2000/svg">
<path d="M56.2159 0H4.78412C2.14689 0 0 1.86533 0 4.1567V30.136C0 32.4274 2.14689 34.2927 4.78412 34.2927H56.2159C58.8531 34.2927 61 32.4274 61 30.136V4.1567C61 1.86533 58.8531 0 56.2159 0ZM58.6079 30.1382C58.6079 31.285 57.5357 32.2166 56.2159 32.2166H4.78412C3.4643 32.2166 2.39209 31.285 2.39209 30.1382V4.15675C2.39209 3.01002 3.4643 2.07843 4.78412 2.07843H56.2159C57.5357 2.07843 58.6079 3.01002 58.6079 4.15675V30.1382Z" fill="#191D22"/>
<path d="M55.0205 4.15625H5.98117C5.31999 4.15625 4.78516 4.62097 4.78516 5.19541V29.0966C4.78516 29.6711 5.32003 30.1358 5.98117 30.1358H55.0205C55.6817 30.1358 56.2165 29.671 56.2165 29.0966V5.19541C56.2165 4.62309 55.6817 4.15625 55.0205 4.15625ZM22.3984 28.0591H13.0582C12.5531 25.4515 10.1808 23.3903 7.17966 22.9515L7.17718 11.3421C10.1784 10.9032 12.5507 8.84203 13.0558 6.23446H22.3959C18.2804 8.5516 15.549 12.5773 15.549 17.1466C15.549 21.7158 18.2802 25.742 22.3984 28.0591ZM29.4013 15.7117C29.696 15.9677 30.0847 16.1075 30.5008 16.1075C32.6898 16.1075 34.4479 17.648 34.4479 19.537C34.4479 21.0667 33.2915 22.3641 31.6969 22.8052V24.3177C31.6969 24.8921 31.162 25.3568 30.5008 25.3568C29.8397 25.3568 29.3048 24.8921 29.3048 24.3177V22.9665H27.7498C27.0886 22.9665 26.5537 22.5018 26.5537 21.9274C26.5537 21.3529 27.0886 20.8882 27.7498 20.8882H30.5008C31.3576 20.8882 32.0559 20.2815 32.0559 19.5371C32.0559 18.7992 31.37 18.186 30.5008 18.186C28.3217 18.186 26.5537 16.6519 26.5537 14.7565C26.5537 13.2289 27.7051 11.9273 29.3048 11.4862V9.97584C29.3048 9.40138 29.8396 8.93668 30.5008 8.93668C31.1619 8.93668 31.6968 9.4014 31.6968 9.97584V11.327H33.2519C33.913 11.327 34.4479 11.7917 34.4479 12.3661C34.4479 12.9406 33.913 13.4053 33.2519 13.4053H30.5008C30.0848 13.4053 29.696 13.5451 29.4013 13.8012C28.7946 14.3283 28.7922 15.1824 29.4013 15.7117ZM53.8243 22.9517C50.8231 23.3906 48.4508 25.4517 47.9457 28.0593H38.6056C42.7211 25.7422 45.4525 21.7165 45.4525 17.1472C45.4525 12.5779 42.7212 8.55226 38.6056 6.23512H47.9457C48.4509 8.84275 50.8231 10.9039 53.8243 11.3427V22.9517Z" fill="#191D22"/>
</svg>
