<svg width="16" height="16" viewBox="0 0 16 16" fill="none" xmlns="http://www.w3.org/2000/svg">
<path d="M8 16C3.589 16 0 12.411 0 8C0 3.589 3.589 0 8 0C12.411 0 16 3.589 16 8C16 12.411 12.411 16 8 16ZM8 0.941C4.107 0.941 0.941 4.107 0.941 8C0.941 11.893 4.107 15.059 8 15.059C11.893 15.059 15.059 11.893 15.059 8C15.059 4.107 11.893 0.941 8 0.941Z" fill="#191D22"/>
<path d="M7.88468 11.3294C7.72768 11.5554 7.41468 11.6114 7.18868 11.4544C6.96268 11.2974 6.90668 10.9844 7.06368 10.7584L11.2967 4.67138C11.4537 4.44438 11.7667 4.38938 11.9927 4.54638C12.2187 4.70338 12.2747 5.01638 12.1177 5.24238L7.88468 11.3294Z" fill="#191D22"/>
<path d="M7.73779 10.6452C7.95679 10.8132 7.99879 11.1262 7.82979 11.3462C7.66179 11.5652 7.34779 11.6072 7.12879 11.4382L3.98879 9.0292C3.76979 8.8612 3.72779 8.5482 3.89679 8.3282C4.06479 8.1092 4.37879 8.0682 4.59779 8.2362L7.73779 10.6452Z" fill="#191D22"/>
</svg>
