<svg width="15" height="16" viewBox="0 0 15 16" fill="none" xmlns="http://www.w3.org/2000/svg">
<g clip-path="url(#clip0_1321_1209)">
<path d="M13.649 6.38493H9.27047V1.97908C9.27047 1.43844 8.83475 1 8.29747 1H7.32448C6.7872 1 6.35148 1.43844 6.35148 1.97908V6.38493H1.973C1.43572 6.38493 1 6.82337 1 7.364V8.34308C1 8.88372 1.43572 9.32216 1.973 9.32216H6.35148V13.728C6.35148 14.2686 6.7872 14.7071 7.32448 14.7071H8.29747C8.83475 14.7071 9.27047 14.2686 9.27047 13.728V9.32216H13.649C14.1862 9.32216 14.622 8.88372 14.622 8.34308V7.364C14.622 6.82337 14.1862 6.38493 13.649 6.38493Z" fill="#34383e"/>
</g>
<defs>
<clipPath id="clip0_1321_1209">
<rect width="13.622" height="15.6652" fill="white" transform="translate(0.8125 0.125)"/>
</clipPath>
</defs>
</svg>
