<svg width="82" height="82" viewBox="0 0 82 82" fill="none" xmlns="http://www.w3.org/2000/svg">
<path d="M81.0352 31.0268C81.0039 30.9409 80.9766 30.8627 80.9375 30.7807C80.9102 30.7182 80.8985 30.6518 80.8633 30.5893L71.4883 13.5273C70.9375 12.5273 69.8867 11.9062 68.75 11.9062H60.625V3.125C60.625 1.3984 59.2266 0 57.5 0H23.75C22.0234 0 20.625 1.3984 20.625 3.125V11.9062H12.5C11.3594 11.9062 10.3086 12.5273 9.76171 13.5273L0.386714 30.5893C0.351557 30.6479 0.343745 30.7182 0.312495 30.7807C0.273433 30.8627 0.246089 30.9448 0.214839 31.0268C0.097649 31.351 0.0195287 31.6909 0.0117188 32.0307C0.0117188 32.0541 0 32.0698 0 32.0971V65.4411C0 67.1677 1.3984 68.5661 3.125 68.5661H8.9023L5.6757 77.0153C5.30851 77.9762 5.43742 79.0544 6.01945 79.902C6.60148 80.7497 7.56635 81.2536 8.59365 81.2536L72.2496 81.2575C73.273 81.2575 74.2262 80.7575 74.8121 79.9216C75.3981 79.0857 75.5348 78.0154 75.1832 77.0544L72.0777 68.57H78.1246C79.8512 68.57 81.2496 67.1716 81.2496 65.445V32.097C81.2496 32.0736 81.2379 32.0579 81.2379 32.0306C81.2301 31.6908 81.1524 31.351 81.0352 31.0268ZM26.8752 6.2538H54.3752V19.3158H26.8752V6.2538ZM14.3522 18.1598H20.6256V19.316H20.0943C18.3677 19.316 16.9693 20.7144 16.9693 22.441C16.9693 24.1676 18.3677 25.566 20.0943 25.566H61.1563C62.8829 25.566 64.2813 24.1676 64.2813 22.441C64.2813 20.7144 62.8829 19.316 61.1563 19.316H60.6251V18.1598H66.8985L72.8399 28.9718H8.40589L14.3473 18.1598H14.3522ZM13.1334 75.0038L20.3404 56.1598H60.8794L64.6567 66.5118C64.6645 66.5313 64.6801 66.5431 64.684 66.5626L67.7699 75.004L13.1334 75.0038ZM75.0004 62.3158H69.7895L67.5356 56.1596C69.2583 56.1596 70.6567 54.7612 70.6567 53.0346C70.6567 51.308 69.2583 49.9096 67.5317 49.9096H63.0708H63.063H18.188H18.1802H13.7193C11.9927 49.9096 10.5943 51.308 10.5943 53.0346C10.5943 54.7338 11.9576 56.1049 13.649 56.144L11.2857 62.312H6.24656V35.222H75.0006L75.0004 62.3158Z" fill="#191D22"/>
<path d="M17.4453 42.5674C17.4453 46.7354 11.1953 46.7354 11.1953 42.5674C11.1953 38.3994 17.4453 38.3994 17.4453 42.5674Z" fill="#191D22"/>
</svg>
