<svg width="30" height="30" viewBox="0 0 30 30" fill="none" xmlns="http://www.w3.org/2000/svg">
<path fill-rule="evenodd" clip-rule="evenodd" d="M24 3.002C21.492 1.117 18.375 0 15 0C6.721 0 0 6.721 0 15C0 23.279 6.721 30 15 30C22.891 30 29.366 23.893 29.956 16.152C30.04 15.051 29.215 14.09 28.114 14.006C27.013 13.922 26.052 14.747 25.968 15.848C25.535 21.524 20.786 26 15 26C8.929 26 4 21.071 4 15C4 8.929 8.929 4 15 4C17.352 4 19.533 4.74 21.322 6H20C18.896 6 18 6.896 18 8C18 9.104 18.896 10 20 10H26C27.105 10 28 9.105 28 8V2C28 0.896 27.104 0 26 0C24.896 0 24 0.896 24 2V3.002Z" fill="#191D22"/>
</svg>
